<svg id="visual" viewBox="0 0 900 600" width="900" height="600" xmlns="http://www.w3.org/2000/svg" xmlns:xlink="http://www.w3.org/1999/xlink" version="1.1"><path d="M0 210L11.5 193.7C23 177.3 46 144.7 69 132.3C92 120 115 128 138.2 137.5C161.3 147 184.7 158 207.8 154.2C231 150.3 254 131.7 277 137.7C300 143.7 323 174.3 346 178.3C369 182.3 392 159.7 415.2 148C438.3 136.3 461.7 135.7 484.8 141C508 146.3 531 157.7 554 152.8C577 148 600 127 623 118.8C646 110.7 669 115.3 692.2 112.5C715.3 109.7 738.7 99.3 761.8 104.5C785 109.7 808 130.3 831 130.3C854 130.3 877 109.7 888.5 99.3L900 89L900 0L888.5 0C877 0 854 0 831 0C808 0 785 0 761.8 0C738.7 0 715.3 0 692.2 0C669 0 646 0 623 0C600 0 577 0 554 0C531 0 508 0 484.8 0C461.7 0 438.3 0 415.2 0C392 0 369 0 346 0C323 0 300 0 277 0C254 0 231 0 207.8 0C184.7 0 161.3 0 138.2 0C115 0 92 0 69 0C46 0 23 0 11.5 0L0 0Z" fill="#bfe2ff"></path><path d="M0 157L11.5 162.5C23 168 46 179 69 177C92 175 115 160 138.2 152.5C161.3 145 184.7 145 207.8 144.8C231 144.7 254 144.3 277 144.3C300 144.3 323 144.7 346 145.8C369 147 392 149 415.2 145C438.3 141 461.7 131 484.8 136.3C508 141.7 531 162.3 554 170C577 177.7 600 172.3 623 161.2C646 150 669 133 692.2 127.5C715.3 122 738.7 128 761.8 140.7C785 153.3 808 172.7 831 173.5C854 174.3 877 156.7 888.5 147.8L900 139L900 0L888.5 0C877 0 854 0 831 0C808 0 785 0 761.8 0C738.7 0 715.3 0 692.2 0C669 0 646 0 623 0C600 0 577 0 554 0C531 0 508 0 484.8 0C461.7 0 438.3 0 415.2 0C392 0 369 0 346 0C323 0 300 0 277 0C254 0 231 0 207.8 0C184.7 0 161.3 0 138.2 0C115 0 92 0 69 0C46 0 23 0 11.5 0L0 0Z" fill="#afdaff"></path><path d="M0 93L11.5 94.8C23 96.7 46 100.3 69 105.5C92 110.7 115 117.3 138.2 123.2C161.3 129 184.7 134 207.8 137.3C231 140.7 254 142.3 277 148.3C300 154.3 323 164.7 346 152.2C369 139.7 392 104.3 415.2 95.3C438.3 86.3 461.7 103.7 484.8 119.5C508 135.3 531 149.7 554 155C577 160.3 600 156.7 623 159.7C646 162.7 669 172.3 692.2 161.8C715.3 151.3 738.7 120.7 761.8 115.7C785 110.7 808 131.3 831 131.5C854 131.7 877 111.3 888.5 101.2L900 91L900 0L888.5 0C877 0 854 0 831 0C808 0 785 0 761.8 0C738.7 0 715.3 0 692.2 0C669 0 646 0 623 0C600 0 577 0 554 0C531 0 508 0 484.8 0C461.7 0 438.3 0 415.2 0C392 0 369 0 346 0C323 0 300 0 277 0C254 0 231 0 207.8 0C184.7 0 161.3 0 138.2 0C115 0 92 0 69 0C46 0 23 0 11.5 0L0 0Z" fill="#9ed1ff"></path><path d="M0 140L11.5 130.3C23 120.7 46 101.3 69 100.7C92 100 115 118 138.2 129.8C161.3 141.7 184.7 147.3 207.8 134.5C231 121.7 254 90.3 277 81.7C300 73 323 87 346 95.7C369 104.3 392 107.7 415.2 109.2C438.3 110.7 461.7 110.3 484.8 105.8C508 101.3 531 92.7 554 92.2C577 91.7 600 99.3 623 95C646 90.7 669 74.3 692.2 77C715.3 79.7 738.7 101.3 761.8 114.2C785 127 808 131 831 135.5C854 140 877 145 888.5 147.5L900 150L900 0L888.5 0C877 0 854 0 831 0C808 0 785 0 761.8 0C738.7 0 715.3 0 692.2 0C669 0 646 0 623 0C600 0 577 0 554 0C531 0 508 0 484.8 0C461.7 0 438.3 0 415.2 0C392 0 369 0 346 0C323 0 300 0 277 0C254 0 231 0 207.8 0C184.7 0 161.3 0 138.2 0C115 0 92 0 69 0C46 0 23 0 11.5 0L0 0Z" fill="#8ec8ff"></path><path d="M0 142L11.5 143.2C23 144.3 46 146.7 69 146.2C92 145.7 115 142.3 138.2 135.3C161.3 128.3 184.7 117.7 207.8 103.5C231 89.3 254 71.7 277 77C300 82.3 323 110.7 346 118.5C369 126.3 392 113.7 415.2 110.3C438.3 107 461.7 113 484.8 112.8C508 112.7 531 106.3 554 108.8C577 111.3 600 122.7 623 118C646 113.3 669 92.7 692.2 86C715.3 79.3 738.7 86.7 761.8 89.7C785 92.7 808 91.3 831 93.7C854 96 877 102 888.5 105L900 108L900 0L888.5 0C877 0 854 0 831 0C808 0 785 0 761.8 0C738.7 0 715.3 0 692.2 0C669 0 646 0 623 0C600 0 577 0 554 0C531 0 508 0 484.8 0C461.7 0 438.3 0 415.2 0C392 0 369 0 346 0C323 0 300 0 277 0C254 0 231 0 207.8 0C184.7 0 161.3 0 138.2 0C115 0 92 0 69 0C46 0 23 0 11.5 0L0 0Z" fill="#7ec0ff"></path><path d="M0 45L11.5 59.7C23 74.3 46 103.7 69 104.7C92 105.7 115 78.3 138.2 74.7C161.3 71 184.7 91 207.8 101C231 111 254 111 277 112.3C300 113.7 323 116.3 346 112.5C369 108.7 392 98.3 415.2 92.5C438.3 86.7 461.7 85.3 484.8 89.7C508 94 531 104 554 108.3C577 112.7 600 111.3 623 105C646 98.7 669 87.3 692.2 81.8C715.3 76.3 738.7 76.7 761.8 76.5C785 76.3 808 75.7 831 76.8C854 78 877 81 888.5 82.5L900 84L900 0L888.5 0C877 0 854 0 831 0C808 0 785 0 761.8 0C738.7 0 715.3 0 692.2 0C669 0 646 0 623 0C600 0 577 0 554 0C531 0 508 0 484.8 0C461.7 0 438.3 0 415.2 0C392 0 369 0 346 0C323 0 300 0 277 0C254 0 231 0 207.8 0C184.7 0 161.3 0 138.2 0C115 0 92 0 69 0C46 0 23 0 11.5 0L0 0Z" fill="#6db7ff"></path><path d="M0 100L11.5 97.8C23 95.7 46 91.3 69 86.7C92 82 115 77 138.2 71.3C161.3 65.7 184.7 59.3 207.8 60.7C231 62 254 71 277 77.8C300 84.7 323 89.3 346 94.8C369 100.3 392 106.7 415.2 102.3C438.3 98 461.7 83 484.8 77.5C508 72 531 76 554 76.7C577 77.3 600 74.7 623 74.8C646 75 669 78 692.2 79.5C715.3 81 738.7 81 761.8 82.8C785 84.7 808 88.3 831 90.3C854 92.3 877 92.7 888.5 92.8L900 93L900 0L888.5 0C877 0 854 0 831 0C808 0 785 0 761.8 0C738.7 0 715.3 0 692.2 0C669 0 646 0 623 0C600 0 577 0 554 0C531 0 508 0 484.8 0C461.7 0 438.3 0 415.2 0C392 0 369 0 346 0C323 0 300 0 277 0C254 0 231 0 207.8 0C184.7 0 161.3 0 138.2 0C115 0 92 0 69 0C46 0 23 0 11.5 0L0 0Z" fill="#5cadff"></path><path d="M0 63L11.5 59.5C23 56 46 49 69 54C92 59 115 76 138.2 82.3C161.3 88.7 184.7 84.3 207.8 84.2C231 84 254 88 277 86.8C300 85.7 323 79.3 346 71.3C369 63.3 392 53.7 415.2 52.7C438.3 51.7 461.7 59.3 484.8 62.5C508 65.7 531 64.3 554 61.7C577 59 600 55 623 60.8C646 66.7 669 82.3 692.2 90.8C715.3 99.3 738.7 100.7 761.8 96.2C785 91.7 808 81.3 831 79C854 76.7 877 82.3 888.5 85.2L900 88L900 0L888.5 0C877 0 854 0 831 0C808 0 785 0 761.8 0C738.7 0 715.3 0 692.2 0C669 0 646 0 623 0C600 0 577 0 554 0C531 0 508 0 484.8 0C461.7 0 438.3 0 415.2 0C392 0 369 0 346 0C323 0 300 0 277 0C254 0 231 0 207.8 0C184.7 0 161.3 0 138.2 0C115 0 92 0 69 0C46 0 23 0 11.5 0L0 0Z" fill="#4ba4ff"></path><path d="M0 53L11.5 57.3C23 61.7 46 70.3 69 69.8C92 69.3 115 59.7 138.2 56.8C161.3 54 184.7 58 207.8 62.8C231 67.7 254 73.3 277 70.8C300 68.3 323 57.7 346 50.2C369 42.7 392 38.3 415.2 36.8C438.3 35.3 461.7 36.7 484.8 38.3C508 40 531 42 554 48C577 54 600 64 623 66.7C646 69.3 669 64.7 692.2 60.3C715.3 56 738.7 52 761.8 48.3C785 44.7 808 41.3 831 46.2C854 51 877 64 888.5 70.5L900 77L900 0L888.5 0C877 0 854 0 831 0C808 0 785 0 761.8 0C738.7 0 715.3 0 692.2 0C669 0 646 0 623 0C600 0 577 0 554 0C531 0 508 0 484.8 0C461.7 0 438.3 0 415.2 0C392 0 369 0 346 0C323 0 300 0 277 0C254 0 231 0 207.8 0C184.7 0 161.3 0 138.2 0C115 0 92 0 69 0C46 0 23 0 11.5 0L0 0Z" fill="#3a9aff"></path><path d="M0 67L11.5 62.2C23 57.3 46 47.7 69 41C92 34.3 115 30.7 138.2 30.2C161.3 29.7 184.7 32.3 207.8 36.2C231 40 254 45 277 45.7C300 46.3 323 42.7 346 43.7C369 44.7 392 50.3 415.2 50.2C438.3 50 461.7 44 484.8 38.7C508 33.3 531 28.7 554 29.7C577 30.7 600 37.3 623 39C646 40.7 669 37.3 692.2 39.3C715.3 41.3 738.7 48.7 761.8 53.8C785 59 808 62 831 59C854 56 877 47 888.5 42.5L900 38L900 0L888.5 0C877 0 854 0 831 0C808 0 785 0 761.8 0C738.7 0 715.3 0 692.2 0C669 0 646 0 623 0C600 0 577 0 554 0C531 0 508 0 484.8 0C461.7 0 438.3 0 415.2 0C392 0 369 0 346 0C323 0 300 0 277 0C254 0 231 0 207.8 0C184.7 0 161.3 0 138.2 0C115 0 92 0 69 0C46 0 23 0 11.5 0L0 0Z" fill="#2890ff"></path><path d="M0 24L11.5 25.2C23 26.3 46 28.7 69 29.7C92 30.7 115 30.3 138.2 28.5C161.3 26.7 184.7 23.3 207.8 23.7C231 24 254 28 277 32.5C300 37 323 42 346 43.5C369 45 392 43 415.2 43.7C438.3 44.3 461.7 47.7 484.8 48.2C508 48.7 531 46.3 554 40.7C577 35 600 26 623 22.2C646 18.3 669 19.7 692.2 23.8C715.3 28 738.7 35 761.8 39.5C785 44 808 46 831 45.8C854 45.7 877 43.3 888.5 42.2L900 41L900 0L888.5 0C877 0 854 0 831 0C808 0 785 0 761.8 0C738.7 0 715.3 0 692.2 0C669 0 646 0 623 0C600 0 577 0 554 0C531 0 508 0 484.8 0C461.7 0 438.3 0 415.2 0C392 0 369 0 346 0C323 0 300 0 277 0C254 0 231 0 207.8 0C184.7 0 161.3 0 138.2 0C115 0 92 0 69 0C46 0 23 0 11.5 0L0 0Z" fill="#1486ff"></path><path d="M0 24L11.5 25.3C23 26.7 46 29.3 69 29.2C92 29 115 26 138.2 23.3C161.3 20.7 184.7 18.3 207.8 19.8C231 21.3 254 26.7 277 29.3C300 32 323 32 346 30.2C369 28.3 392 24.7 415.2 24.8C438.3 25 461.7 29 484.8 30.8C508 32.7 531 32.3 554 31.7C577 31 600 30 623 27C646 24 669 19 692.2 17.5C715.3 16 738.7 18 761.8 19.2C785 20.3 808 20.7 831 21.7C854 22.7 877 24.3 888.5 25.2L900 26L900 0L888.5 0C877 0 854 0 831 0C808 0 785 0 761.8 0C738.7 0 715.3 0 692.2 0C669 0 646 0 623 0C600 0 577 0 554 0C531 0 508 0 484.8 0C461.7 0 438.3 0 415.2 0C392 0 369 0 346 0C323 0 300 0 277 0C254 0 231 0 207.8 0C184.7 0 161.3 0 138.2 0C115 0 92 0 69 0C46 0 23 0 11.5 0L0 0Z" fill="#007bff"></path></svg>